<svg xmlns="http://www.w3.org/2000/svg" width="300" height="180" viewBox="0 0 300 180">
  <rect fill="#039" x="15" width="270" height="180" />
	<g fill="#fc0">
		<path d="M150,20.0009l2.2454,6.91,7.2655,0-5.8777,4.2708,2.2448,6.91L150,33.8214l-5.8781,4.27,2.2449-6.91-5.8777-4.2708,7.2655,0Z" />
		<path d="M202.0023,110.0048l2.2454,6.91,7.2655,0-5.8778,4.2708,2.2449,6.91-5.878-4.27-5.8781,4.27,2.2449-6.91-5.8778-4.2708,7.2656,0Z" />
		<path d="M150,140.0061l2.2454,6.91,7.2655,0-5.8777,4.2708,2.2448,6.91-5.878-4.27-5.8781,4.27,2.2449-6.91-5.8777-4.2708,7.2655,0Z" />
		<path d="M210.0026,80.0035l2.2454,6.91,7.2655,0-5.8777,4.2707,2.2449,6.91-5.8781-4.27-5.878,4.27,2.2448-6.91-5.8777-4.2707,7.2655,0Z" />
		<path d="M89.9974,80.0035l2.2454,6.91,7.2655,0-5.8778,4.2707,2.2449,6.91-5.878-4.27-5.8781,4.27,2.2449-6.91-5.8777-4.2707,7.2655,0Z" />
		<path d="M180.0013,28.0012l2.2454,6.91,7.2655,0-5.8777,4.2708,2.2449,6.91-5.8781-4.27-5.8781,4.27,2.2449-6.91L170.49,34.9114l7.2655,0Z" />
		<path d="M119.9987,28.0012l2.2454,6.91,7.2655,0-5.8778,4.2708,2.2449,6.91-5.878-4.27-5.8781,4.27,2.2449-6.91-5.8777-4.2708,7.2655,0Z" />
		<path d="M119.9987,132.0058l2.2454,6.91,7.2655,0-5.8778,4.2708,2.2449,6.91-5.878-4.27-5.8781,4.27,2.2449-6.91-5.8777-4.2708,7.2655,0Z" />
		<path d="M180.0013,132.0058l2.2454,6.91,7.2655,0-5.8777,4.2708,2.2449,6.91-5.8781-4.27-5.8781,4.27,2.2449-6.91-5.8777-4.2708,7.2655,0Z" />
		<path d="M202.0023,50.0022l2.2454,6.91,7.2655,0-5.8778,4.2707,2.2449,6.91-5.878-4.27-5.8781,4.27,2.2449-6.91-5.8778-4.2707,7.2656,0Z" />
		<path d="M97.9977,50.0022l2.2454,6.91,7.2655,0-5.8777,4.2707,2.2449,6.91-5.8781-4.27-5.878,4.27,2.2449-6.91-5.8778-4.2707,7.2655,0Z" />
		<path d="M97.9977,110.0048l2.2454,6.91,7.2655,0-5.8777,4.2708,2.2449,6.91-5.8781-4.27-5.878,4.27,2.2449-6.91-5.8778-4.2708,7.2655,0Z" />
	</g>
</svg>