<svg xmlns="http://www.w3.org/2000/svg" width="800" height="560" fill="#fff">
	<path opacity="0.8" d="M499,122 c8.5,9.4 18.9,27.6 25.8,45.2 c3.5,8.8 9.1,30.1 11.3,43.6 c2.6,15 2.5,60.5 0,77 c-4.8,30.6 -13.1,57.7 -25.1,81.5 c-7.2,14.2 -18.3,32.6 -20.5,33.9 c-0.4,0.3 -1.1,-5.2 -1.5,-12.2 c-0.8,-14.2 -2.6,-27.6 -5.7,-40.2 c-2.1,-8.7 -10,-26.2 -14.2,-31.4 l-2.4,-2.9 l0.5,10.9 c1,24.7 -7.8,51.2 -24.5,74.7 c-7.7,10.7 -29.5,32.5 -41.3,41.4 c-30.7,22.9 -72.6,45.9 -96.2,52.9 c-6.8,2 -12.5,3.9 -12.8,4.1 c-0.3,0.3 14.8,0.3 33.5,0 c33.1,-0.6 35.2,-0.7 80.8,-6.2 l46.8,-5.5 l20.7,2 c11.4,1.1 37.8,3.5 58.7,5.5 c20.9,1.9 46,4.7 55.9,6.1 c9.8,1.4 17.9,2.4 18.1,2.2 c0,-0 169.43,-1.678 169.43,-1.678 l-67.569,-49.353 l-16.39,-56.738 c0,0 -23.5,-81.866 -27.57,-104.932 s-28.4,-58.5 -28.4,-58.5 l-3.3,-3.5 c-1.9,-2 -13.3,-14.6 -25.4,-28.1 c-28.1,-31.3 -45.2,-47.9 -58.5,-56.8 c-4.1,-2.8 -53.2,-28.2 -54.5,-28.2 C494,116 496,119 499,122 z" />
	<path d="M335,2 c-5.5,1 -12.7,2.6 -16,3.6 l-6,1.7 l7.5,2.2 c11,3.2 21.9,9.5 37,21.1 c5.4,4.2 23,21.7 23,22.8 c0,0.4 -3.3,-0.9 -7.3,-2.7 c-23.8,-10.8 -46.2,-15.1 -74.2,-14.3 c-42,1.3 -77.3,13.8 -104.6,37.2 c-11.9,10.3 -26.5,29.8 -35.8,48.3 c-3.1,6.1 -3.1,6.2 -0.9,5.7 c9.1,-2 12.8,-2.5 19.6,-2.6 c5,0 9,0.5 11.5,1.6 l3.8,1.6 l-5.2,6.2 c-19.6,23 -41.4,45.6 -56.9,59 c-10.4,8.9 -17.6,14 -42,29.1 c-21.5,13.3 -33.9,25.3 -35.6,34.3 c-1.1,5.7 5.7,17.8 17,30.4 c5,5.7 10.1,11.9 11.3,13.8 l2.1,3.4 l-0.5,-8.6 c-0.4,-5.7 -0.2,-9.6 0.7,-11.6 c1.4,-3.4 6.1,-6.8 14.4,-10.2 c3.2,-1.3 7.3,-3.9 9.2,-5.8 c5.8,-6 5,-6.2 -9.2,-2.6 c-15.3,3.8 -20.7,4.4 -24.6,2.8 c-3.9,-1.6 -9.1,-6.5 -11.9,-11.1 L60,254 l3.5,-4.8 c4.5,-6 14.1,-13.4 34.2,-26.4 c28.7,-18.6 32.4,-21.8 75,-63.9 c31.5,-31.3 32.2,-31.8 46,-34.4 c3.9,-0.7 13.3,-1.6 20.9,-2 c12.9,-0.7 13.7,-0.9 11.2,-2.2 c-5,-2.6 -17.1,-5.1 -28.6,-5.8 c-11.8,-0.7 -38.3,0.7 -48.5,2.6 c-3.1,0.6 -5.9,0.8 -6.1,0.6 c-0.2,-0.2 2.4,-4.3 5.8,-9.1 c14.6,-20.5 43.1,-43.5 64.9,-52.3 c17.6,-7.1 41.4,-10.8 69.4,-10.8 c22.4,0 27.6,0.8 45,6.2 c13.8,4.3 39.1,17.9 57.8,31 c7,4.8 16.3,9 17.6,7.8 c0.5,-0.6 -7.6,-12.8 -14.9,-22.5 c-19.4,-25.4 -39,-42.1 -64.7,-55.1 l-11.2,-5.7 l6.7,-0.7 c14.9,-1.4 50.7,3.1 68.7,8.6 c35.4,11 81.5,35.8 119.5,64.3 c26.5,19.9 52.1,53.8 63.5,83.9 c3.9,10.4 7.3,16.7 9.2,16.7 c4.1,0 -1.4,-18.7 -11.7,-39.5 c-15.9,-32.2 -38.1,-54.9 -82,-84.2 c-29.7,-19.8 -50.7,-30.9 -80.5,-42.6 c-17.8,-7 -27.4,-9.3 -48.8,-11.7 C361,-0 348,-0 335,2 z" />
	<path d="M363,114 c-15.3,1.2 -29.9,4 -31.7,6.1 c-1.5,1.9 2.9,8.3 13,18.7 c9,9.3 12.2,10.8 12.2,5.6 c0,-3.1 3.3,-9.2 6.7,-12.2 c2.6,-2.3 8.7,-4.8 11.8,-4.8 c8.8,0 14.5,19.7 11.1,38 c-1.1,5.9 -2.2,9 -3.6,10.2 c-2.7,2.2 -2.7,5.8 0,5.8 c5.6,0 11.1,-7.6 13.1,-17.8 c1.4,-7.6 0.7,-33.8 -1.2,-39.2 C391,115 384,113 363,114 z" />
	<path d="M493,119 c1.8,1.2 8.8,4.9 15.5,8.2 c15.9,8 36.9,22.3 52.7,35.8 c8,6.8 32.6,30.8 47,45.8 c17.1,17.7 33.7,41.5 42.7,61.2 c8.7,19.1 20.2,58.6 35.8,122.8 l12.1,50.2 l-4,0.9 c-36,7.7 -101.6,22.9 -101.6,23.6 c0,1.4 83.5,-0.8 110.6,-2.9 l7,-0.5 l22,15.3 c12,8.4 22,16 22.2,16.9 c0.3,1.8 -4.6,2.1 -61.3,3.9 c-42.2,1.4 -50.1,1 -67.6,-3.5 C609,492 569,486 540,482 c-19.4,-2.1 -26,-2.3 -67.5,-2.2 c-63.9,0.1 -90,2.2 -118.5,9.6 c-25.6,6.7 -34.7,8.6 -44.7,9.6 c-13.8,1.4 -14.2,1.1 -8.8,-5.2 c5.2,-5.9 11.5,-18.2 14.1,-27.6 c2.5,-8.9 2.4,-30.6 -0.2,-40.5 c-2.2,-8 -4,-9 -6.6,-3.5 c-0.9,1.9 -4,8.4 -6.8,14.5 c-5.8,12.4 -14.5,28.3 -20.1,36.5 c-17.8,26.3 -59.4,53.8 -100.1,66 c-17.9,5.3 -40.2,9 -54.5,9 h-7.5 l2.1,-2.8 c6.7,-8.6 17.2,-23.5 20.4,-28.7 c3.7,-6 4.6,-9.8 2.7,-11 c-1.1,-0.7 -7.7,1.1 -23,6.1 c-23.5,7.6 -42.3,9.3 -61,5.4 c-19.6,-4 -30.8,-12.7 -39.6,-30.5 c-5.5,-11.2 -6.4,-16.1 -6.4,-33.9 c0.1,-15.4 1.1,-25.4 3.6,-35.9 l1.6,-6.8 l6.1,9.3 c10.4,16 26.6,30.1 40.1,34.8 c7.4,2.6 28.7,4.4 43.6,3.6 c28.4,-1.4 66.1,-10.8 90.5,-22.6 c20.5,-9.9 38.2,-29.3 37.3,-41.1 c-0.2,-3.5 -0.7,-4.4 -2.3,-4.6 c-1.5,-0.2 -3.9,2.3 -9.5,9.8 c-10.5,14.2 -17.1,20 -29.3,25.9 c-24.9,11.9 -54.8,19.5 -86.7,22.1 c-40.1,3.2 -55.5,-3.6 -75.3,-33.1 c-4.9,-7.4 -11.2,-18.1 -13.9,-23.8 c-2.7,-5.6 -5.1,-10.2 -5.3,-10.2 c-1,0 -7.9,23.7 -10.6,36.5 c-3.7,18.1 -4.9,41 -2.9,55.8 c4.1,30.8 19.3,50.9 44,58.5 c19.5,6 33.2,6.2 59.9,1.1 c8.4,-1.6 15.5,-2.8 15.8,-2.6 c0.4,0.5 -14.7,19.6 -17,21.6 c-2.4,1.9 -2.1,5.8 0.5,7.2 c2.5,1.4 33.3,0.7 49.7,-1.1 c10,-1.1 32.5,-5.9 42.3,-9.2 c10.1,-3.3 34.7,-15 43.8,-20.8 c19.2,-12.4 38.4,-29.7 50.2,-45.5 c7.9,-10.4 11.9,-17.6 15.9,-28.3 l2.8,-7.7 l-0.5,5 c-2,18.8 -7.9,31.7 -21.3,46.8 c-7.3,8.1 -8.2,12 -3,13.1 c8,1.6 32,0.5 62.1,-2.9 c58.3,-6.4 100.9,-8.1 161.3,-6.6 c50.4,1.3 80.7,3.3 107.5,7.1 l20.6,3 h81.2 c54.2,0 82,-0.3 83.3,-1 c2.5,-1.4 2.4,-4.9 -0.4,-9.1 c-1.8,-2.7 -10,-7.7 -38.8,-23.9 c-20,-11.3 -38.1,-21.5 -40.1,-22.8 c-6.8,-4.3 -9.1,-10.1 -15.2,-38.2 c-14.9,-69.3 -33.1,-134.2 -44.1,-157.5 c-4.3,-9.1 -32.6,-44.6 -49,-61.4 c-31.6,-32.4 -62.8,-55.8 -97.2,-72.8 c-11.6,-5.8 -16.6,-7.7 -20.5,-8 l-5.3,-0.5 L493,119 z" />
	<path d="M207,175 c-2.3,1.8 -4.8,5.7 -7,11.9 c-3.4,7.2 -5.4,10.1 -9.6,13.8 c-6.1,5.3 -32.3,19.1 -38.3,20.1 c-6.5,1.1 -6.9,1.3 -5.1,3 c1.1,1.2 1.2,2.3 0.5,4.7 c-0.5,1.8 -0.9,3.4 -0.9,3.6 c0,0.1 -1.9,2.4 -4.2,5 c-4.7,5.1 -4,4.7 7.2,-4.9 c4.1,-3.5 14.1,-10.4 22.1,-15.3 c8,-4.8 17.8,-11.2 21.8,-14.2 l7.2,-5.4 h11.5 H223 l3.3,-3.3 c2.4,-2.4 3.6,-4.8 4.5,-9.2 c0.7,-3.3 1.7,-6.6 2.3,-7.3 c0.5,-0.7 0.8,-1.4 0.6,-1.6 c-0.8,-0.5 -18.4,-3.6 -20.9,-3.6 C211,173 209,174 207,175 z" />
	<path d="M69,297 c0,9.5 2,23.8 3.6,27.1 c0.9,1.8 3.7,5.3 6.1,8 c4.3,4.6 4.4,4.8 3.6,9.5 c-1.4,8.4 -0.8,36.2 0.9,41 c4.1,11.2 13,22 23.1,28 c20.2,12.1 53.7,14.5 84.5,6.2 c11,-3 18.4,-8.3 23.7,-17 c1.8,-3 4.4,-6.5 5.7,-7.7 c4,-3.7 13.8,-7.1 35.8,-12.3 c11.5,-2.7 24.4,-6.3 28.7,-8 c15.4,-6.1 32,-17.7 44.7,-31 c7.4,-7.7 7.8,-8.4 6.1,-9.7 c-1.1,-0.7 -2.3,-1.3 -2.8,-1.3 c-0.6,0 -5.5,4.7 -11.1,10.3 C307,355 289,366 271,372 c-7,2.1 -41.2,8.1 -46.3,8.1 c-2.5,0 -5,2.1 -15,12.4 c-14.6,15 -17.1,16.2 -37.2,17.9 c-11.3,0.9 -14.8,0.8 -25,-0.7 c-21.5,-3.2 -38.5,-10.2 -45.7,-18.7 c-3.6,-4.3 -7,-11.2 -9.1,-18.4 c-2.4,-8.2 -1.7,-29.5 1,-32.5 c1,-1.1 2.3,-2 2.8,-2 c0.6,0 10,3.8 20.9,8.5 c24.8,10.7 32.7,12.9 45.9,12.3 c9.4,-0.4 10.1,-0.5 19,-5.2 c8.5,-4.4 9.6,-4.8 14.3,-4.2 l5.1,0.6 l-2.9,-2.4 C197,346 194,344 192,343 c-3.7,-1.6 -4.5,-1.6 -19.6,0.7 c-11.1,1.7 -20,2.4 -29.8,2.4 c-12.4,-0.1 -15,-0.4 -22.5,-2.8 c-13.8,-4.4 -29.8,-16.2 -31.6,-23.4 c-1.2,-4.6 -2.5,-1 -1.8,4.9 c0.7,5.9 0.6,6 -1.4,4.9 c-3.1,-1.6 -8.8,-9.1 -10,-13.1 c-0.6,-1.9 -1.4,-7.1 -1.8,-11.5 c-0.6,-7 -2.5,-13.5 -3.9,-13.5 C69,292 69,294 69,297 z" />
</svg>