<?xml version="1.0" encoding="UTF-8"?>
<!DOCTYPE svg  PUBLIC '-//W3C//DTD SVG 1.1//EN'  'http://www.w3.org/Graphics/SVG/1.1/DTD/svg11.dtd'>
<svg enable-background="new 0 0 1291 800" version="1.1" viewBox="0 75 1291 800" xml:space="preserve" xmlns="http://www.w3.org/2000/svg">
<linearGradient id="a" x1="715.51" x2="999.76" y1="404.85" y2="429.72" gradientUnits="userSpaceOnUse">
	<stop stop-color="#249470" offset="0"/>
	<stop stop-color="#23906D" stop-opacity=".8433" offset=".1567"/>
	<stop stop-color="#208363" stop-opacity=".6778" offset=".3222"/>
	<stop stop-color="#1B6E53" stop-opacity=".5082" offset=".4918"/>
	<stop stop-color="#14503D" stop-opacity=".3359" offset=".6641"/>
	<stop stop-color="#0A2B20" stop-opacity=".1632" offset=".8368"/>
	<stop stop-opacity="0" offset="1"/>
</linearGradient>
<path d="m773.27 214c8.5 9.4 18.9 27.6 25.801 45.2 3.5 8.8 9.1 30.1 11.3 43.6 2.6 15 2.5 60.5 0 77-4.8 30.6-13.101 57.7-25.101 81.5-7.199 14.2-18.3 32.6-20.5 33.9-0.399 0.3-1.1-5.2-1.5-12.2-0.8-14.2-2.6-27.601-5.699-40.2-2.101-8.7-10-26.2-14.2-31.4l-2.4-2.899 0.5 10.899c1 24.7-7.8 51.2-24.5 74.7-7.7 10.7-29.5 32.5-41.3 41.4-30.7 22.899-72.6 45.899-96.2 52.899-6.8 2-12.5 3.9-12.8 4.101-0.3 0.3 14.8 0.3 33.5 0 33.1-0.601 35.2-0.7 80.8-6.2l46.8-5.5 20.7 2c11.4 1.1 37.8 3.5 58.7 5.5 20.9 1.9 46 4.7 55.9 6.1 9.8 1.4 17.899 2.4 18.1 2.2 0.029-0.059 169.43-1.678 169.43-1.678l-67.569-49.353-16.39-56.738s-23.504-81.866-27.57-104.93-28.4-58.5-28.4-58.5l-3.3-3.5c-1.9-2-13.3-14.6-25.4-28.1-28.1-31.3-45.2-47.9-58.5-56.8-4.1-2.8-53.2-28.2-54.5-28.2-0.302 1e-3 1.698 2.401 4.298 5.201z" fill="url(#a)" opacity=".9"/>
<path d="m609.5 93.9c-5.5 1-12.7 2.6-16 3.6l-6 1.7 7.5 2.2c11 3.2 21.9 9.5 37 21.1 5.4 4.2 23 21.7 23 22.8 0 0.4-3.3-0.9-7.3-2.7-23.8-10.8-46.2-15.1-74.2-14.3-42 1.3-77.3 13.8-104.6 37.2-11.9 10.3-26.5 29.8-35.801 48.3-3.1 6.1-3.1 6.2-0.899 5.7 9.1-2 12.8-2.5 19.6-2.6 5 0 9 0.5 11.5 1.6l3.8 1.6-5.199 6.2c-19.601 23-41.4 45.6-56.9 59-10.4 8.9-17.6 14-42 29.1-21.5 13.3-33.9 25.3-35.6 34.3-1.101 5.7 5.699 17.8 17 30.4 5 5.7 10.1 11.9 11.3 13.8l2.1 3.4-0.5-8.6c-0.399-5.7-0.2-9.6 0.7-11.6 1.4-3.4 6.1-6.8 14.4-10.2 3.199-1.3 7.3-3.9 9.199-5.8 5.801-6 5-6.2-9.199-2.6-15.301 3.8-20.7 4.4-24.601 2.8-3.899-1.6-9.1-6.5-11.899-11.1l-2.101-3.2 3.5-4.8c4.5-6 14.101-13.4 34.2-26.4 28.7-18.6 32.4-21.8 75-63.9 31.5-31.3 32.2-31.8 46-34.4 3.9-0.7 13.3-1.6 20.9-2 12.899-0.7 13.699-0.9 11.199-2.2-5-2.6-17.1-5.1-28.6-5.8-11.8-0.7-38.3 0.7-48.5 2.6-3.1 0.6-5.9 0.8-6.1 0.6s2.399-4.3 5.8-9.1c14.6-20.5 43.1-43.5 64.899-52.3 17.601-7.1 41.4-10.8 69.4-10.8 22.4 0 27.6 0.8 45 6.2 13.8 4.3 39.1 17.9 57.8 31 7 4.8 16.3 9 17.601 7.8 0.5-0.6-7.601-12.8-14.9-22.5-19.4-25.4-39-42.1-64.7-55.1l-11.2-5.7 6.7-0.7c14.9-1.4 50.7 3.1 68.7 8.6 35.4 11 81.5 35.8 119.5 64.3 26.5 19.9 52.1 53.8 63.5 83.9 3.9 10.4 7.3 16.7 9.2 16.7 4.1 0-1.4-18.7-11.7-39.5-15.9-32.2-38.1-54.9-82-84.2-29.7-19.8-50.7-30.9-80.5-42.6-17.8-7-27.4-9.3-48.8-11.7-20.899-2.4-32.999-2.4-46.199-0.1z" fill="#249470"/>
<path d="m637.5 206.6c-15.3 1.2-29.9 4-31.7 6.1-1.5 1.9 2.9 8.3 13 18.7 9 9.3 12.2 10.8 12.2 5.6 0-3.1 3.3-9.2 6.7-12.2 2.6-2.3 8.7-4.8 11.8-4.8 8.8 0 14.5 19.7 11.1 38-1.1 5.9-2.199 9-3.6 10.2-2.7 2.2-2.7 5.8 0 5.8 5.6 0 11.1-7.6 13.1-17.8 1.4-7.6 0.7-33.8-1.199-39.2-3.301-9.6-10.401-12-31.401-10.4z" fill="#249470"/>
<path d="m766.8 210.9c1.8 1.2 8.8 4.9 15.5 8.2 15.9 8 36.9 22.3 52.7 35.8 8 6.8 32.6 30.8 47 45.8 17.1 17.7 33.7 41.5 42.7 61.2 8.7 19.1 20.2 58.6 35.8 122.8l12.1 50.2-4 0.899c-36 7.7-101.6 22.9-101.6 23.601 0 1.399 83.5-0.801 110.6-2.9l7-0.5 22 15.3c12 8.4 22 16 22.2 16.9 0.3 1.8-4.6 2.1-61.3 3.899-42.2 1.4-50.1 1-67.6-3.5-16.4-4.199-56.9-10.699-85.9-13.799-19.4-2.1-26-2.3-67.5-2.2-63.9 0.101-90 2.2-118.5 9.601-25.6 6.7-34.7 8.6-44.7 9.6-13.8 1.4-14.2 1.101-8.8-5.2 5.2-5.899 11.5-18.199 14.1-27.6 2.5-8.9 2.4-30.6-0.199-40.5-2.2-8-4-9-6.601-3.5-0.899 1.9-4 8.4-6.8 14.5-5.8 12.4-14.5 28.3-20.1 36.5-17.801 26.3-59.4 53.8-100.1 66-17.899 5.3-40.2 9-54.5 9h-7.5l2.101-2.8c6.699-8.601 17.199-23.5 20.399-28.7 3.7-6 4.601-9.8 2.7-11-1.1-0.7-7.7 1.1-23 6.1-23.5 7.601-42.3 9.301-61 5.4-19.6-4-30.8-12.7-39.6-30.5-5.5-11.2-6.4-16.1-6.4-33.9 0.1-15.399 1.1-25.399 3.6-35.899l1.6-6.8 6.1 9.3c10.4 16 26.601 30.1 40.101 34.8 7.399 2.6 28.699 4.4 43.6 3.6 28.4-1.399 66.1-10.8 90.5-22.6 20.5-9.9 38.2-29.3 37.3-41.1-0.2-3.5-0.7-4.4-2.3-4.601-1.5-0.2-3.9 2.3-9.5 9.8-10.5 14.2-17.1 20-29.3 25.9-24.9 11.9-54.8 19.5-86.7 22.1-40.1 3.2-55.5-3.6-75.3-33.1-4.9-7.4-11.2-18.1-13.9-23.8-2.7-5.601-5.1-10.2-5.3-10.2-1 0-7.9 23.7-10.6 36.5-3.7 18.1-4.9 41-2.9 55.8 4.1 30.8 19.3 50.9 44 58.5 19.5 6 33.2 6.2 59.9 1.101 8.399-1.601 15.5-2.801 15.8-2.601 0.399 0.5-14.7 19.601-17 21.601-2.4 1.899-2.101 5.8 0.5 7.199 2.5 1.4 33.3 0.7 49.7-1.1 10.1-1.1 32.5-5.9 42.3-9.2 10.1-3.3 34.7-15 43.8-20.8 19.2-12.4 38.4-29.7 50.2-45.5 7.899-10.4 11.899-17.6 15.899-28.3l2.801-7.7-0.5 5c-2 18.8-7.9 31.7-21.301 46.8-7.3 8.101-8.199 12-3 13.101 8 1.6 32 0.5 62.101-2.9 58.3-6.4 100.9-8.1 161.3-6.6 50.4 1.3 80.7 3.3 107.5 7.1l20.6 3h81.2c54.2 0 82-0.3 83.3-1 2.5-1.4 2.4-4.9-0.399-9.1-1.8-2.7-10-7.7-38.8-23.9-20-11.3-38.101-21.5-40.101-22.8-6.8-4.3-9.1-10.101-15.2-38.2-14.899-69.3-33.1-134.2-44.1-157.5-4.3-9.1-32.6-44.6-49-61.4-31.6-32.4-62.8-55.8-97.2-72.8-11.6-5.8-16.6-7.7-20.5-8l-5.3-0.5 3.3 2.098z"/>
<path d="m481.1 267.7c-2.3 1.8-4.8 5.7-7.699 11.9-3.4 7.2-5.4 10.1-9.601 13.8-6.1 5.3-32.3 19.1-38.3 20.1-6.5 1.1-6.9 1.3-5.1 3 1.1 1.2 1.199 2.3 0.5 4.7-0.5 1.8-0.9 3.4-0.9 3.6 0 0.1-1.9 2.4-4.2 5-4.7 5.1-4 4.7 7.2-4.9 4.1-3.5 14.1-10.4 22.1-15.3 8-4.8 17.801-11.2 21.801-14.2l7.199-5.4h23.1l3.3-3.3c2.4-2.4 3.6-4.8 4.5-9.2 0.7-3.3 1.7-6.6 2.3-7.3 0.5-0.7 0.8-1.4 0.601-1.6-0.801-0.5-18.4-3.6-20.9-3.6-1.401 0-4.001 1.2-5.901 2.7z" fill="#249470"/>
<path d="m343 389.2c0 9.5 2 23.8 3.6 27.1 0.9 1.8 3.7 5.3 6.101 8 4.3 4.601 4.399 4.8 3.6 9.5-1.399 8.4-0.8 36.2 0.9 41 4.1 11.2 13 22 23.1 28 20.2 12.101 53.7 14.5 84.5 6.2 11-3 18.4-8.3 23.7-17 1.8-3 4.4-6.5 5.7-7.7 4-3.7 13.8-7.1 35.8-12.3 11.5-2.7 24.4-6.3 28.7-8 15.399-6.1 32-17.7 44.7-31 7.399-7.7 7.8-8.4 6.1-9.7-1.1-0.7-2.3-1.3-2.8-1.3-0.601 0-5.5 4.7-11.101 10.3-14.2 14.6-32.6 26-50.8 31.6-7 2.1-41.2 8.1-46.3 8.1-2.5 0-5 2.1-15 12.4-14.6 15-17.1 16.199-37.2 17.899-11.3 0.9-14.8 0.8-25-0.7-21.5-3.199-38.5-10.199-45.7-18.699-3.6-4.301-7-11.2-9.1-18.4-2.4-8.2-1.7-29.5 1-32.5 1-1.1 2.3-2 2.8-2 0.601 0 10 3.8 20.9 8.5 24.8 10.7 32.7 12.9 45.899 12.3 9.4-0.399 10.101-0.5 19-5.2 8.5-4.399 9.601-4.8 14.301-4.199l5.1 0.6-2.9-2.4c-1.6-1.401-4.7-3.201-6.7-4.201-3.7-1.601-4.5-1.601-19.601 0.699-11.1 1.7-20 2.4-29.8 2.4-12.4-0.1-15-0.4-22.5-2.8-13.8-4.4-29.8-16.2-31.6-23.4-1.2-4.6-2.5-1-1.801 4.9 0.7 5.899 0.601 6-1.399 4.899-3.101-1.6-8.8-9.1-10-13.1-0.601-1.9-1.4-7.1-1.8-11.5-0.601-7-2.5-13.5-3.9-13.5-0.299 2e-3 -0.499 2.402-0.499 5.202z" fill="#249470"/>
<rect x="274" y="663" width="24" height="86" fill="#249470"/>
<path d="M409,663v36.5c0,35-0.1,36.5-1.9,37.5c-1.199,0.6-12.5,1-29.6,1s-28.4-0.4-29.6-1c-1.801-1-1.9-2.5-1.9-37.5  V663h-24v36.2c0,42.399,0.1,42.7,8.6,46.899l4.9,2.4h84l4.9-2.4c8.5-4.199,8.6-4.5,8.6-46.899V663H409z" fill="#249470"/>
<path d="m563.8 663.2l-12.2 0.3-19.7 32.8c-10.801 18-19.801 33-20.101 33.2-0.2 0.2-9.399-14.6-20.3-33l-20-33.4-12.2-0.1c-6.8 0-12.3 0.2-12.3 0.4 0 0.3 11.5 19.6 25.6 43.1l25.5 42.6 13.7-0.3 13.601-0.3 25.3-42c13.899-23.1 25.2-42.4 25.3-42.8 0-0.4-5.5-0.6-12.2-0.5z" fill="#249470"/>
<polygon points="590 663 590 749 692 749 692 738 614 738 614 709 648.8 708.8 683.5 708.5 683.5 697.5 648.8 697.2 614 697 614 674 692 674 692 663" fill="#249470"/>
<polygon points="802 663 801.8 694.6 801.5 726.1 771.1 694.6 740.7 663 713 663 713 749 737 749 737.2 717.6 737.5 686.3 767.8 717.6 798.2 749 825 749 825 663" fill="#249470"/>
<polygon points="850 663 850 749 952 749 952 738 874 738 874 709 908.8 708.8 943.5 708.5 943.5 697.5 908.8 697.2 874 697 874 674 952 674 952 663" fill="#249470"/>
<path d="m983.8 664c-4.6 1.4-9.399 4.8-10.6 7.5-0.7 1.5-1.2 7.5-1.2 14.4 0 14.3 1.4 17.3 9.5 20.5 4.5 1.8 7.8 2.1 36 2.3 17.1 0.2 32 0.6 33.3 0.8 2.101 0.5 2.2 0.9 2.2 13.5 0 11.8-0.2 13-1.9 14-1.3 0.6-15.899 1-40.5 1h-38.6v11.1l45.8-0.3 45.7-0.3 5-2.5c7.8-3.9 8.6-6.4 8.3-24.2-0.3-14-0.399-14.8-2.8-17.399-1.4-1.5-4.5-3.601-7-4.801-4.2-2-6.4-2.1-37-2.399-20.5-0.2-33-0.8-33.7-1.4-0.899-0.7-1.3-4.1-1.3-10.399 0-8.2 0.2-9.5 1.9-10.4 1.3-0.6 14.8-1 37-1h35.1v-11.002l-41.2 0.1c-22.7 0-42.5 0.4-44 0.9z" fill="#249470"/>
<path d="m496 780v20h48v-6h-36v-12h32v-6h-32v-10h36v-6h-48v20z"/>
<path d="m554 780v20h12v-28.5l14.3 14.3 14.2 14.2h12.5v-40h-11v14.7l-0.1 14.8-14.2-14.8-14.2-14.8-6.7 0.1h-6.8v20z"/>
<path d="m621.4 761.2c-1.2 0.5-2.7 2.1-3.301 3.399-1.399 3.301-1.399 27.5 0 30.7 1.9 4.3 4.601 4.7 28.4 4.7h22.501v-24h-25.1l0.3 2.7c0.3 2.7 0.6 2.8 6.6 3.1l6.2 0.3v11.9h-28v-28l18.3-0.2 18.2-0.3 0.3-2.8 0.3-2.7-21.3 0.1c-12.5 1e-3 -22.2 0.501-23.4 1.101z"/>
<path d="m679 780v20h12v-40h-12v20z"/>
<path d="m702 780v20h12v-28.5l14.3 14.3 14.2 14.2h12.5v-40h-11v14.7l-0.1 14.8-14.2-14.8-14.2-14.8-6.7 0.1h-6.8v20z"/>
<path d="m765 780v20h48v-6h-36v-12h32v-6h-32v-10h36v-6h-48v20z"/>
<path d="m823 780v20h48v-6h-36v-12h32v-6h-32v-10h36v-6h-48v20z"/>
<path d="m880 779.9v20.1h12v-16h14.5l6.5 8 6.5 8h12.7l-6.601-7.9c-3.6-4.3-6.3-8.1-5.899-8.5 0.3-0.3 1.7-0.6 3-0.6s3.5-1.1 4.8-2.5c2.1-2.1 2.5-3.3 2.5-8.8 0-4.9-0.5-7.101-1.9-8.8-1.899-2.4-2.1-2.4-25-2.7l-23.1-0.3v20zm37.8-8.2l-0.3 5.8-12.7 0.3-12.8 0.3v-12.1h26.1l-0.3 5.7z"/>
<path d="m940 780v20h12v-40h-12v20z"/>
<path d="m962 780v20h12v-28.5l14.3 14.3 14.2 14.2h12.5v-40h-11v14.7l-0.1 14.8-14.2-14.8-14.2-14.8-6.7 0.1h-6.8v20z"/>
<path d="m1030.4 761.2c-1.2 0.5-2.7 2.1-3.301 3.399-1.399 3.301-1.399 27.5 0 30.7 1.9 4.3 4.601 4.7 28.4 4.7h22.5v-24h-25.1l0.3 2.7c0.3 2.7 0.6 2.8 6.6 3.1l6.2 0.3v11.9h-28v-28l18.3-0.2 18.2-0.3 0.3-2.8 0.3-2.7-21.3 0.1c-12.499 1e-3 -22.199 0.501-23.399 1.101z"/>
</svg>
