<svg xmlns="http://www.w3.org/2000/svg" width="300" height="180" viewBox="0 0 300 180">
   <path fill="#005b4d" d="M59.2636,180.0015V-.0015H240.8163v180.003Z" />
   <path fill="#fff" d="M157.2157,174.9631V157.8085c18.5311-2.7882,53.88-7.0938,67.4694-50.2222l-8.7787-2.3779c-5.4911,21.7488-28.44,42.35-58.6907,42.6338V31.2588C121.5471,32.3055,108.5092,54.297,100.0452,73.4L88.6589,71.3381c9.6109-24.056,26.9259-49.7973,68.5568-51.9449V5.0372h77.9359V174.9631Z" />
   <path fill="#fff" d="M78.2047,152.7647H59.1837v-4.6269H73.7608v-5.75h4.4439Zm0-20.0707H59.1837V122.2925h4.1687v5.89h3.3v-5.553h4.08v5.553h3.2109v-5.89h4.2618Zm-7.1092-25.3817v-4.6035l-6.2752,1.73c-.1907.0514-.4968.127-.9223.2179-.4216.0951-.9668.2136-1.6368.36.47.0989.9137.1978,1.34.2967.4254.0952.8292.1941,1.2194.2929Zm5.308,5.84-17.22-5.2145V102.139l17.1892-5.2545,1.8318,3.9921-3.4062.859V108.31l3.4062.8824Zm1.8012-25.934H59.1837V83.6835a25.6768,25.6768,0,0,1,.4169-5.5967,7.64,7.64,0,0,1,1.3881-2.8814,8.01,8.01,0,0,1,3.2286-2.4461,12.4919,12.4919,0,0,1,8.98,0,8.0128,8.0128,0,0,1,3.2287,2.4461,7.644,7.644,0,0,1,1.37,2.8063,21.3876,21.3876,0,0,1,.4081,4.8918v4.3144Zm-4.2618-4.58v-.7754A4.5153,4.5153,0,0,0,68.7054,76.63a5.5179,5.5179,0,0,0-4.0006,1.2509,5.4044,5.4044,0,0,0-1.2726,3.9815v.7754Zm4.2618-21.0477H59.1837V51.1889h4.1687v5.89h3.3V51.5252h4.08v5.5535h3.2109v-5.89h4.2618Zm0-20.8936H59.1837V35.86a18.01,18.01,0,0,1,.2925-3.9573,4.88,4.88,0,0,1,.98-1.9315,5.0923,5.0923,0,0,1,1.9872-1.4093,7.006,7.006,0,0,1,2.6652-.4908,6.1325,6.1325,0,0,1,3.5921.9659,4.6371,4.6371,0,0,1,1.836,2.822l7.668-4.6232v5.2286l-7.4463,3.8945h7.4463ZM68.1729,36.3587V35.5a3.3974,3.3974,0,0,0-.5719-2.1849,2.2,2.2,0,0,0-1.7918-.6888,2.693,2.693,0,0,0-2.0355.6455,3.1082,3.1082,0,0,0-.603,2.1607v.9261Z" />
   <path fill="#ebe615" d="M147.7108,76.7425c-.0052-.4313-.01-.7548-.0142-1.0784,1.5069-.2356,4.3788-3.2936,5.3322-4.6005,1.29-.3407,2.7587-1.2633,4.1578-1.4975.1164.6457-.0348,3.7267.083,4.48-.5278.87-.8564.1-1.2749,1.0768-2.7868,1.3312-5.7564,5.1454-6.4035,5.1539-.4071,1.8391-1.6955,2.2876-3.1924,3.278-1.5862,2.3939-2.5355,4.0244-4.9972,5.4591-.8386,1.8446-2.1241,2.5088-2.4333,3.5915-.5393.0073-1.0784.0142-1.51.02.0143,1.0783.0143,1.0783-.6328,1.0869a1.7379,1.7379,0,0,0-.7491.4413q-.1362,1.9432-.2723,3.8866c1.4347,2.4618,1.4347,2.4618,3.6115,3.943,2.5388,4.3887,5.0776,8.7773,7.7242,13.1646,2.6223,2.5539,2.8727,13.3365,3.4633,17.2116a2.5215,2.5215,0,0,0-.745.765,11.4623,11.4623,0,0,0-1.1734.9862c-.0808,2.05-.1615,4.1008-.1345,6.15a3.8763,3.8763,0,0,0-1.0684.7692,2.5205,2.5205,0,0,0-.7449.7648l-4.6129,1.8946c-4.5832.0606-8.9262-.8515-13.3058-1.7044-6.21-1.2092-8.0352-1.6781-13.3-4.6159-2.8325-1.5808-5.3384-3.4165-8.81-4.7524-.1137-.43-.2257-.752-.3379-1.0741-5.619-.7887-11.355-10.42-16.0278-13.0549-3.9084-10.0871-6.9171-17.3817-1.764-27.3729a9.1478,9.1478,0,0,1,1.8276-.4556c.095-.9719.19-1.944.2864-2.8081l3.55-.6941q.3148-.6513.63-1.3026c8.1758-1.6182,8.1758-1.6182,11.9531-1.4523,6.499,2.0712,6.499,2.0712,6.8325,2.8219,5.1962,1.4413,10.089,4.3967,15.1689,5.1924.0041.3235.0083.6471.0142,1.0784,2.47-.7877,2.47-.7877,3.9573-2.533.2936-2.269,3.506-4.0372,5.3293-4.8163,2.23-2.6181,3.1925-3.278,6.4234-3.6442.495-3.35.7079-3.5688,3.16-5.7584Zm-4.4839,44.2817c-.2243-.6443-.4485-1.2885-.6713-1.8248-.4315.0062-.7549.01-1.0785.0142-1.5867-5.8034-5.3146-10.3921-8.7217-15.2007-1.2941.0171-2.5868.1421-3.7716.2655-1.0485,2.279-1.0314,3.573-.9972,6.1613,3.8,1.5247,8.028,6.3369,10.563,9.6683.6638.8728,1.3991,1.89,2.2254,3.1057a9.1126,9.1126,0,0,1,1.8262-.5635q.3127-.813.6257-1.626Zm-16.2189-3.0215c-1.4475-3.4323-5.984-3.9116-7.2229-7.8861-3.1346-.4978-7.5817-2.3806-8.7028-5.6015-3.3631-1.4656-5.8462-1.6485-7.2923-4.973-.7549.01-1.51.02-2.1568.0285l-2.9345-1.687c-2.0675-1.3748-3.4908-2.9739-6.1826-2.6147-.0921,1.1876-.1829,2.4831-.2736,3.7786l.047,3.5588c1.316,9.7978,4.9688,16.8682,14.7258,20.6221.0052.4314.0128.9706.02,1.51a16.7384,16.7384,0,0,1,2.27.4014c3.89,8.6851,23.6774,12.4144,32.4182,12.73-.4628-2.3667-.8177-4.7349-1.1725-7.1032-1.4433-1.4056-2.614-1.9192-2.6409-3.9558-4.02-2.2119-5.78-4.7772-9.3784-7.75C128.5135,117.66,128.387,117.9845,127.008,118.0027Zm-12.7375-17.089c-1.4077-.4129-1.4077-.4129-2.6167-2.1227C107.306,96.26,107.306,96.26,106.6447,95.19c-.4315.0052-.7549.01-1.0785.0142-1.4133-.8442-2.7188-1.69-4.0228-2.4276a6.6316,6.6316,0,0,1-.1264-1.4005c1.3991-.2342,2.9074-.362,4.4158-.49.4313-.0052.8627-.0114,1.4019-.0185.7848,2.2547,8.4558,3.2318,10.8367,3.8475,2.8167.9335,5.7412,1.8656,8.6658,2.7977-.7192,2.706-2.4005,6.0718-4.9688,7.6158Z" />
   <path fill="#005b4d" d="M184.1432,75.199c-3.2755-1.5352-6.8881-3.6011-6.6769-8.03a5.9242,5.9242,0,0,1,.9511-.7794c2.3911.6945,4.89,1.3862,7.3916,2.1858a10.5568,10.5568,0,0,1,.4631,5.49,13.4259,13.4259,0,0,0-2.1289,1.1329ZM195.3064,44.89a41.1841,41.1841,0,0,1,1.9269-4.3192c1.0028-1.8914,1.0955-2.7925,3.24-3.0135a10.72,10.72,0,0,1,5.4586.9136c.7673,3.387-.64,4.1214-.8893,7.4667-3.9618,1.1794-5.7754,1.9806-9.8669,2.3a32.62,32.62,0,0,1,.1308-3.3477Zm-15.5527,6.3642c-1.4262-.9347-2.85-1.7616-4.1654-2.5913-.7837-5.3743.4691-7.0243,5.6524-6.8323.4889,1.492,1.38,1.5263,1.636,2.4224.4,1.3974-.0062,3.5735-.2228,6.4961a27.0983,27.0983,0,0,0-2.9.5052Zm-13.7956,4.48c-1.8493-.6-5.2491-2.78-4.98-4.9441.3206-.116.7491-.2348,1.1777-.3536-.0137-.5391-.0247-.97-.0356-1.4016,1.93-.4806,3.8621-.8532,5.7947-1.226.4613,1.175.9227,2.35,1.4918,3.5223a6.36,6.36,0,0,1,.8736.4094c.0438,1.725.1981,3.5552.3525,5.3852a8.36,8.36,0,0,0-1.7059.7985l-2.9685-2.19Zm26.7006,2.2914c1.3741-1.1136,1.3741-1.1136,2.773-1.2571,2.1115,2.4278,2.1115,2.4278,2.26,4.0422.1269.752.2566,1.6118.3864,2.4716-3.3286.6239-3.3286.6239-4.6361.1177-.7574-.0887-1.5149-.1773-2.1646-.2687-.6441.1242-1.18.2458-1.7168.3672-.2621-1.8274-.4164-3.6575-.5681-5.38l3.6658-.0931ZM159.312,68.7269c14.5407-9.4316,14.5408-8.22,19.8687-10.8363.7191-1.5351,2.8751-2.6381,5.0875-3.95,1.2926-.7667,2.5191-2.6944,3.7445-3.3112,1.1521-.5793,3.1385-.3833,3.9971-.46.5965,2.2505-2.6688,4.2269-3.1613,6.0734-3.7627.527-3.9044,3.4435-6.37,4.0456a35.596,35.596,0,0,1-2.9344,2.2084c-1.059.7188-2.5883.4883-3.7434,1.15-4.323,2.4756-8.7614,5.4778-13.0172,7.2067-1.3742,1.1137-1.2324,2.265-5.5259,3.1292l-.1014-4.3119c.6469-.0165,1.4015-.9246,2.1563-.9438Z" />
</svg>