<svg xmlns="http://www.w3.org/2000/svg" width="512" height="128" viewBox="0 0 512 128" fill="#f2f2f2">
	<path d="M467.5073,120.2354v-28.72q0-8.2039,10.2678-8.2054h31.4888v5.812H479.8286q-2.739,0-2.7361,2.19v29.128q0,2.1894,2.7361,2.1894h22.5891V107.2433H490.7819v-5.812H512v27.0094H477.7751Q467.51,128.4407,467.5073,120.2354Z"/>
	<path d="M411.3788,128.4407V83.31H422.332l25.3252,33.371V83.31h9.5853v45.1309H446.2892L420.964,95.0727v33.368Z"/>
	<path d="M391.5287,128.4407V83.31h9.5852v45.1309Z"/>
	<path d="M338.8218,128.4407V83.31h32.8569q10.2692,0,10.2677,8.2054v9.9161q0,8.1374-10.3357,8.2054L384,128.4407H373.4574l-12.3893-18.804H348.407v18.804Zm9.5852-24.616h21.2181q2.7391,0,2.7391-2.19V91.3113q0-2.19-2.7391-2.19H348.407Z"/>
	<path d="M288.1714,128.4407V83.31H329.928v5.812H297.7566v12.31h28.7468v5.812H297.7566v15.3854H329.928v5.812Z"/>
	<path d="M237.518,128.4407V83.31h41.7566v5.812H247.1032v12.31H275.85v5.812H247.1032v15.3854h32.1714v5.812Z"/>
	<path d="M181.39,128.4407V83.31h10.9533l25.3252,33.371V83.31h9.5852v45.1309H216.3l-25.3252-33.368v33.368Z"/>
	<path d="M161.5394,128.4407V83.31h9.5853v45.1309Z"/>
	<path d="M106.7819,120.2354v-28.72q0-8.2039,10.2678-8.2054h31.4888v5.812H119.1032q-2.739,0-2.7361,2.19v29.128q0,2.1894,2.7361,2.1894h22.5891V107.2433H130.0565v-5.812h21.2181v27.0094H117.05Q106.7849,128.4407,106.7819,120.2354Z"/>
	<path d="M50.6534,128.4407V83.31H61.6066l25.3253,33.371V83.31h9.5852v45.1309H85.5638L60.2386,95.0727v33.368Z"/>
	<path d="M0,128.4407V83.31H41.7566v5.812H9.5852v12.31H38.332v5.812H9.5852v15.3854H41.7566v5.812Z"/>
	<path d="M445.0788,70.0363V61.0154H492.88q4.2482,0,4.25-3.395V40.5365q0-3.3951-4.25-3.395H461.0134q-15.9361,0-15.9346-12.7342V12.7341Q445.0788-.0015,461.0134,0h45.676V9.0179h-42.49q-4.2481,0-4.25,3.398v12.31q0,3.395,4.25,3.395h31.8663q15.936,0,15.9346,12.7341V57.3021q0,12.7356-15.9346,12.7342Z"/>
	<path d="M367.5364,70.0363V0h64.7994V9.0179H382.41V28.1206h44.6122v9.0209H382.41V61.0154h49.9257v9.0209Z"/>
	<path d="M280.4309,70.0363V0h16.9985L336.731,51.7853V0h14.8708V70.0363H334.6062L295.3046,18.251V70.0363Z"/>
	<path d="M201.8247,70.0363V0h64.7994V9.0179H216.6984V28.1206h44.6122v9.0209H216.6984V61.0154h49.9257v9.0209Z"/>
	<path d="M109.942,0h15.51l25.9192,55.18L177.2906,0h15.5073L159.8707,70.0363H142.8722Z"/>
	<path d="M30.8053,57.3021V0H45.679V57.62q0,3.3995,4.2467,3.395H81.7949q4.2481,0,4.25-3.395V0h14.8707V57.3021q0,12.7356-15.9346,12.7342H46.74Q30.8082,70.0363,30.8053,57.3021Z"/>
	<path d="M0,70.0363V0H14.8737V70.0363Z"/>
</svg>